<svg width="25" height="23" viewBox="0 0 25 23" fill="none" xmlns="http://www.w3.org/2000/svg">
<path id="Vector" d="M12.5 0C14.7601 0 16.8504 0.438089 18.7709 1.31427C20.6915 2.19044 22.2098 3.38187 23.3259 4.88853C24.442 6.39513 25 8.03855 25 9.81874C25 11.5989 24.442 13.2446 23.3259 14.7559C22.2098 16.2672 20.6938 17.461 18.7779 18.3371C16.862 19.2133 14.7693 19.6514 12.5 19.6514C11.7839 19.6514 11.0444 19.6004 10.2818 19.4984C6.97077 21.7885 5.20835 22.9475 4.99443 22.9753C4.89211 23.0124 4.79443 23.0077 4.70144 22.9614C4.66423 22.9336 4.63634 22.8965 4.61773 22.8501C4.59912 22.8037 4.58985 22.762 4.58985 22.7249V22.6693C4.64567 22.3077 5.06881 20.8011 5.85938 18.1494C4.06436 17.2593 2.63904 16.0795 1.58343 14.6099C0.527809 13.1403 0 11.5433 0 9.81874C0 8.03855 0.558036 6.39513 1.67411 4.88853C2.79018 3.38187 4.3085 2.19044 6.22907 1.31427C8.14964 0.438089 10.2399 0 12.5 0Z" fill="black"/>
</svg>
