<svg xmlns="http://www.w3.org/2000/svg" width="33" height="25" viewBox="0 0 33 25" fill="none">
<path d="M12.5 2.08333C15.6583 2.08333 18.2292 4.65312 18.2292 7.8125C18.2292 9.33125 17.726 11.1417 14.8458 13.6354C19.1281 15.6781 21.7229 19.1073 22.6396 22.9156H2.34167C3.33646 18.5531 6.51354 15.2083 10.174 13.6562C8.50625 12.3156 6.77083 10.1948 6.77083 7.8125C6.77083 4.65312 9.34167 2.08333 12.5 2.08333ZM12.5 0C8.18542 0 4.6875 3.49687 4.6875 7.8125C4.6875 9.90833 5.51771 11.8062 6.86042 13.2104C1.62083 16.3448 0 22.0656 0 25H25C25 22.0927 23.274 16.375 18.1354 13.2146C19.4812 11.8104 20.3125 9.91042 20.3125 7.8125C20.3125 3.49687 16.8146 0 12.5 0Z"/>
</svg>